<?xml version="1.0" encoding="utf-8"?>
<!-- Generator: Adobe Illustrator 22.1.0, SVG Export Plug-In . SVG Version: 6.00 Build 0)  -->
<svg version="1.1" id="Layer_1" xmlns="http://www.w3.org/2000/svg" xmlns:xlink="http://www.w3.org/1999/xlink" x="0px" y="0px"
	 viewBox="0 0 512 512" style="enable-background:new 0 0 512 512;" xml:space="preserve">
<style type="text/css">
	.st0{fill:#FF7761;}
	.st1{fill:#FFFFFF;}
</style>
<path class="st0" d="M433,512H80.8c-27.7,0-53.4-14.3-67.9-37.9C-1.7,450.6-3,421.2,9.3,396.4L185.5,44.2C199,17.1,226.6,0,256.9,0
	s57.9,17.1,71.4,44.2l176.1,352.3c12.4,24.8,11,54.1-3.5,77.7C486.4,497.7,460.7,512,433,512z"/>
<g>
	<g>
		<path class="st1" d="M256.9,119.9c-11,0-20,9-20,20v128.8c0,11,9,20,20,20c11,0,20-9,20-20V139.9
			C276.9,128.8,267.9,119.9,256.9,119.9z"/>
	</g>
</g>
<g>
	<g>
		<circle class="st1" cx="256.9" cy="380.2" r="27"/>
	</g>
</g>
</svg>
