<?xml version="1.0" standalone="no"?>
<!DOCTYPE svg PUBLIC "-//W3C//DTD SVG 20010904//EN"
 "http://www.w3.org/TR/2001/REC-SVG-20010904/DTD/svg10.dtd">
<svg version="1.0" xmlns="http://www.w3.org/2000/svg"
 width="175.000000pt" height="175.000000pt" viewBox="0 0 175.000000 175.000000"
 preserveAspectRatio="xMidYMid meet">
<metadata>
Created by potrace 1.11, written by Peter Selinger 2001-2013
</metadata>
<g transform="translate(0.000000,175.000000) scale(0.100000,-0.100000)"
fill="#000000" stroke="none">
<path d="M789 1738 c-257 -25 -500 -174 -642 -394 -298 -461 -99 -1078 413
-1282 183 -73 418 -78 603 -13 233 82 431 268 520 492 50 126 61 185 60 334 0
111 -4 156 -22 219 -112 414 -507 687 -932 644z m41 -308 c0 -67 -1 -70 -24
-70 -43 0 -150 -39 -201 -73 -63 -43 -110 -91 -142 -144 -24 -41 -65 -143 -57
-143 2 0 -1 -11 -6 -24 l-9 -24 187 0 c103 0 202 -1 220 -1 l32 -1 0 -65 c0
-60 -2 -65 -22 -66 -13 0 -111 0 -219 0 l-196 1 9 -50 c12 -69 32 -123 61
-165 79 -116 201 -199 325 -220 l42 -7 0 -68 0 -68 -37 5 c-239 30 -438 192
-521 425 -22 64 -26 89 -26 198 0 101 4 137 22 187 72 213 235 368 443 423
121 31 119 32 119 -50z m261 36 c179 -62 328 -213 389 -396 28 -84 30 -91 35
-177 l4 -73 -117 0 c-358 -2 -484 -1 -487 2 -9 9 -10 120 -1 125 5 4 108 6
228 6 l219 -1 -6 37 c-12 67 -74 179 -132 238 -62 62 -170 119 -243 129 -25 3
-49 7 -55 8 -12 1 -21 59 -16 105 l3 33 55 -6 c30 -3 86 -17 124 -30z m368
-855 c-28 -67 -114 -176 -178 -228 -94 -74 -204 -119 -333 -138 l-38 -5 0 70
c0 67 1 70 23 70 36 0 127 28 186 58 65 33 145 111 177 174 21 42 28 47 61 50
21 2 57 1 80 0 l41 -4 -19 -47z"/>
</g>
</svg>
